<mxfile host="app.diagrams.net" modified="2020-12-18T08:52:26.965Z" agent="5.0 (Windows)" etag="E8Hwx7R8R9k7X5GZSLJ-" version="14.0.4" type="github">
  <diagram id="ynSm4ies3AohdqwCY75u" name="Page-1">
    <mxGraphModel dx="1422" dy="763" grid="1" gridSize="10" guides="1" tooltips="1" connect="1" arrows="1" fold="1" page="1" pageScale="1" pageWidth="850" pageHeight="1100" math="0" shadow="0">
      <root>
        <mxCell id="0" />
        <mxCell id="1" parent="0" />
        <mxCell id="PlGeKxx-NIN7YSxcfEhY-20" style="edgeStyle=orthogonalEdgeStyle;rounded=0;orthogonalLoop=1;jettySize=auto;html=1;exitX=1;exitY=1;exitDx=0;exitDy=0;" edge="1" parent="1" source="PlGeKxx-NIN7YSxcfEhY-1" target="PlGeKxx-NIN7YSxcfEhY-2">
          <mxGeometry relative="1" as="geometry" />
        </mxCell>
        <mxCell id="PlGeKxx-NIN7YSxcfEhY-21" style="edgeStyle=orthogonalEdgeStyle;rounded=0;orthogonalLoop=1;jettySize=auto;html=1;exitX=0.5;exitY=1;exitDx=0;exitDy=0;entryX=0.5;entryY=0;entryDx=0;entryDy=0;" edge="1" parent="1" source="PlGeKxx-NIN7YSxcfEhY-1" target="PlGeKxx-NIN7YSxcfEhY-6">
          <mxGeometry relative="1" as="geometry" />
        </mxCell>
        <mxCell id="PlGeKxx-NIN7YSxcfEhY-22" style="edgeStyle=orthogonalEdgeStyle;rounded=0;orthogonalLoop=1;jettySize=auto;html=1;exitX=0;exitY=1;exitDx=0;exitDy=0;entryX=0.5;entryY=0;entryDx=0;entryDy=0;" edge="1" parent="1" source="PlGeKxx-NIN7YSxcfEhY-1" target="PlGeKxx-NIN7YSxcfEhY-4">
          <mxGeometry relative="1" as="geometry" />
        </mxCell>
        <mxCell id="PlGeKxx-NIN7YSxcfEhY-1" value="Root" style="ellipse;whiteSpace=wrap;html=1;aspect=fixed;" vertex="1" parent="1">
          <mxGeometry x="370" y="40" width="60" height="60" as="geometry" />
        </mxCell>
        <mxCell id="PlGeKxx-NIN7YSxcfEhY-23" style="edgeStyle=orthogonalEdgeStyle;rounded=0;orthogonalLoop=1;jettySize=auto;html=1;exitX=0;exitY=1;exitDx=0;exitDy=0;entryX=0.5;entryY=0;entryDx=0;entryDy=0;" edge="1" parent="1" source="PlGeKxx-NIN7YSxcfEhY-2" target="PlGeKxx-NIN7YSxcfEhY-8">
          <mxGeometry relative="1" as="geometry" />
        </mxCell>
        <mxCell id="PlGeKxx-NIN7YSxcfEhY-24" style="edgeStyle=orthogonalEdgeStyle;rounded=0;orthogonalLoop=1;jettySize=auto;html=1;exitX=0.5;exitY=1;exitDx=0;exitDy=0;entryX=0.5;entryY=0;entryDx=0;entryDy=0;" edge="1" parent="1" source="PlGeKxx-NIN7YSxcfEhY-2" target="PlGeKxx-NIN7YSxcfEhY-9">
          <mxGeometry relative="1" as="geometry" />
        </mxCell>
        <mxCell id="PlGeKxx-NIN7YSxcfEhY-25" style="edgeStyle=orthogonalEdgeStyle;rounded=0;orthogonalLoop=1;jettySize=auto;html=1;exitX=1;exitY=1;exitDx=0;exitDy=0;entryX=0.5;entryY=0;entryDx=0;entryDy=0;" edge="1" parent="1" source="PlGeKxx-NIN7YSxcfEhY-2" target="PlGeKxx-NIN7YSxcfEhY-3">
          <mxGeometry relative="1" as="geometry" />
        </mxCell>
        <mxCell id="PlGeKxx-NIN7YSxcfEhY-2" value="Nederland" style="ellipse;whiteSpace=wrap;html=1;aspect=fixed;" vertex="1" parent="1">
          <mxGeometry x="720" y="160" width="60" height="60" as="geometry" />
        </mxCell>
        <mxCell id="PlGeKxx-NIN7YSxcfEhY-26" style="edgeStyle=orthogonalEdgeStyle;rounded=0;orthogonalLoop=1;jettySize=auto;html=1;exitX=0;exitY=1;exitDx=0;exitDy=0;entryX=0.5;entryY=0;entryDx=0;entryDy=0;" edge="1" parent="1" source="PlGeKxx-NIN7YSxcfEhY-3" target="PlGeKxx-NIN7YSxcfEhY-17">
          <mxGeometry relative="1" as="geometry" />
        </mxCell>
        <mxCell id="PlGeKxx-NIN7YSxcfEhY-27" style="edgeStyle=orthogonalEdgeStyle;rounded=0;orthogonalLoop=1;jettySize=auto;html=1;exitX=1;exitY=1;exitDx=0;exitDy=0;" edge="1" parent="1" source="PlGeKxx-NIN7YSxcfEhY-3" target="PlGeKxx-NIN7YSxcfEhY-18">
          <mxGeometry relative="1" as="geometry" />
        </mxCell>
        <mxCell id="PlGeKxx-NIN7YSxcfEhY-3" value="Nijmegen" style="ellipse;whiteSpace=wrap;html=1;aspect=fixed;" vertex="1" parent="1">
          <mxGeometry x="960" y="270" width="60" height="60" as="geometry" />
        </mxCell>
        <mxCell id="PlGeKxx-NIN7YSxcfEhY-32" style="edgeStyle=orthogonalEdgeStyle;rounded=0;orthogonalLoop=1;jettySize=auto;html=1;exitX=0.5;exitY=1;exitDx=0;exitDy=0;entryX=0.5;entryY=0;entryDx=0;entryDy=0;" edge="1" parent="1" source="PlGeKxx-NIN7YSxcfEhY-4" target="PlGeKxx-NIN7YSxcfEhY-11">
          <mxGeometry relative="1" as="geometry" />
        </mxCell>
        <mxCell id="PlGeKxx-NIN7YSxcfEhY-4" value="Duitsland" style="ellipse;whiteSpace=wrap;html=1;aspect=fixed;" vertex="1" parent="1">
          <mxGeometry x="210" y="160" width="60" height="60" as="geometry" />
        </mxCell>
        <mxCell id="PlGeKxx-NIN7YSxcfEhY-37" style="edgeStyle=orthogonalEdgeStyle;rounded=0;orthogonalLoop=1;jettySize=auto;html=1;exitX=0;exitY=1;exitDx=0;exitDy=0;entryX=0.5;entryY=0;entryDx=0;entryDy=0;" edge="1" parent="1" source="PlGeKxx-NIN7YSxcfEhY-6" target="PlGeKxx-NIN7YSxcfEhY-10">
          <mxGeometry relative="1" as="geometry" />
        </mxCell>
        <mxCell id="PlGeKxx-NIN7YSxcfEhY-38" style="edgeStyle=orthogonalEdgeStyle;rounded=0;orthogonalLoop=1;jettySize=auto;html=1;exitX=1;exitY=1;exitDx=0;exitDy=0;" edge="1" parent="1" source="PlGeKxx-NIN7YSxcfEhY-6" target="PlGeKxx-NIN7YSxcfEhY-7">
          <mxGeometry relative="1" as="geometry" />
        </mxCell>
        <mxCell id="PlGeKxx-NIN7YSxcfEhY-6" value="UK" style="ellipse;whiteSpace=wrap;html=1;aspect=fixed;" vertex="1" parent="1">
          <mxGeometry x="370" y="160" width="60" height="60" as="geometry" />
        </mxCell>
        <mxCell id="PlGeKxx-NIN7YSxcfEhY-39" style="edgeStyle=orthogonalEdgeStyle;rounded=0;orthogonalLoop=1;jettySize=auto;html=1;exitX=0.5;exitY=1;exitDx=0;exitDy=0;" edge="1" parent="1" source="PlGeKxx-NIN7YSxcfEhY-7" target="PlGeKxx-NIN7YSxcfEhY-35">
          <mxGeometry relative="1" as="geometry" />
        </mxCell>
        <mxCell id="PlGeKxx-NIN7YSxcfEhY-7" value="Cambridge" style="ellipse;whiteSpace=wrap;html=1;aspect=fixed;" vertex="1" parent="1">
          <mxGeometry x="415" y="270" width="60" height="60" as="geometry" />
        </mxCell>
        <mxCell id="PlGeKxx-NIN7YSxcfEhY-31" style="edgeStyle=orthogonalEdgeStyle;rounded=0;orthogonalLoop=1;jettySize=auto;html=1;exitX=0.5;exitY=1;exitDx=0;exitDy=0;entryX=0.5;entryY=0;entryDx=0;entryDy=0;" edge="1" parent="1" source="PlGeKxx-NIN7YSxcfEhY-8" target="PlGeKxx-NIN7YSxcfEhY-19">
          <mxGeometry relative="1" as="geometry" />
        </mxCell>
        <mxCell id="PlGeKxx-NIN7YSxcfEhY-8" value="Maastricht" style="ellipse;whiteSpace=wrap;html=1;aspect=fixed;" vertex="1" parent="1">
          <mxGeometry x="520" y="270" width="60" height="60" as="geometry" />
        </mxCell>
        <mxCell id="PlGeKxx-NIN7YSxcfEhY-28" style="edgeStyle=orthogonalEdgeStyle;rounded=0;orthogonalLoop=1;jettySize=auto;html=1;exitX=1;exitY=1;exitDx=0;exitDy=0;" edge="1" parent="1" source="PlGeKxx-NIN7YSxcfEhY-9" target="PlGeKxx-NIN7YSxcfEhY-16">
          <mxGeometry relative="1" as="geometry" />
        </mxCell>
        <mxCell id="PlGeKxx-NIN7YSxcfEhY-29" style="edgeStyle=orthogonalEdgeStyle;rounded=0;orthogonalLoop=1;jettySize=auto;html=1;exitX=0.5;exitY=1;exitDx=0;exitDy=0;entryX=0.5;entryY=0;entryDx=0;entryDy=0;" edge="1" parent="1" source="PlGeKxx-NIN7YSxcfEhY-9" target="PlGeKxx-NIN7YSxcfEhY-15">
          <mxGeometry relative="1" as="geometry" />
        </mxCell>
        <mxCell id="PlGeKxx-NIN7YSxcfEhY-30" style="edgeStyle=orthogonalEdgeStyle;rounded=0;orthogonalLoop=1;jettySize=auto;html=1;exitX=0;exitY=1;exitDx=0;exitDy=0;entryX=0.5;entryY=0;entryDx=0;entryDy=0;" edge="1" parent="1" source="PlGeKxx-NIN7YSxcfEhY-9" target="PlGeKxx-NIN7YSxcfEhY-14">
          <mxGeometry relative="1" as="geometry" />
        </mxCell>
        <mxCell id="PlGeKxx-NIN7YSxcfEhY-9" value="Utrecht" style="ellipse;whiteSpace=wrap;html=1;aspect=fixed;" vertex="1" parent="1">
          <mxGeometry x="720" y="270" width="60" height="60" as="geometry" />
        </mxCell>
        <mxCell id="PlGeKxx-NIN7YSxcfEhY-36" style="edgeStyle=orthogonalEdgeStyle;rounded=0;orthogonalLoop=1;jettySize=auto;html=1;entryX=0.5;entryY=0;entryDx=0;entryDy=0;" edge="1" parent="1" source="PlGeKxx-NIN7YSxcfEhY-10" target="PlGeKxx-NIN7YSxcfEhY-34">
          <mxGeometry relative="1" as="geometry" />
        </mxCell>
        <mxCell id="PlGeKxx-NIN7YSxcfEhY-10" value="Manchester" style="ellipse;whiteSpace=wrap;html=1;aspect=fixed;" vertex="1" parent="1">
          <mxGeometry x="325" y="270" width="60" height="60" as="geometry" />
        </mxCell>
        <mxCell id="PlGeKxx-NIN7YSxcfEhY-33" style="edgeStyle=orthogonalEdgeStyle;rounded=0;orthogonalLoop=1;jettySize=auto;html=1;exitX=0.5;exitY=1;exitDx=0;exitDy=0;entryX=0.5;entryY=0;entryDx=0;entryDy=0;" edge="1" parent="1" source="PlGeKxx-NIN7YSxcfEhY-11" target="PlGeKxx-NIN7YSxcfEhY-13">
          <mxGeometry relative="1" as="geometry" />
        </mxCell>
        <mxCell id="PlGeKxx-NIN7YSxcfEhY-11" value="Heidelberg" style="ellipse;whiteSpace=wrap;html=1;aspect=fixed;" vertex="1" parent="1">
          <mxGeometry x="210" y="280" width="60" height="60" as="geometry" />
        </mxCell>
        <mxCell id="PlGeKxx-NIN7YSxcfEhY-13" value="EMBL" style="ellipse;whiteSpace=wrap;html=1;aspect=fixed;" vertex="1" parent="1">
          <mxGeometry x="210" y="400" width="60" height="60" as="geometry" />
        </mxCell>
        <mxCell id="PlGeKxx-NIN7YSxcfEhY-14" value="UMC" style="ellipse;whiteSpace=wrap;html=1;aspect=fixed;" vertex="1" parent="1">
          <mxGeometry x="640" y="400" width="60" height="60" as="geometry" />
        </mxCell>
        <mxCell id="PlGeKxx-NIN7YSxcfEhY-15" value="GenDx" style="ellipse;whiteSpace=wrap;html=1;aspect=fixed;" vertex="1" parent="1">
          <mxGeometry x="720" y="400" width="60" height="60" as="geometry" />
        </mxCell>
        <mxCell id="PlGeKxx-NIN7YSxcfEhY-16" value="Hubrecht Laboratorium" style="ellipse;whiteSpace=wrap;html=1;aspect=fixed;" vertex="1" parent="1">
          <mxGeometry x="800" y="400" width="60" height="60" as="geometry" />
        </mxCell>
        <mxCell id="PlGeKxx-NIN7YSxcfEhY-17" value="RUMC" style="ellipse;whiteSpace=wrap;html=1;aspect=fixed;" vertex="1" parent="1">
          <mxGeometry x="920" y="400" width="60" height="60" as="geometry" />
        </mxCell>
        <mxCell id="PlGeKxx-NIN7YSxcfEhY-18" value="RU" style="ellipse;whiteSpace=wrap;html=1;aspect=fixed;" vertex="1" parent="1">
          <mxGeometry x="1000" y="400" width="60" height="60" as="geometry" />
        </mxCell>
        <mxCell id="PlGeKxx-NIN7YSxcfEhY-19" value="BiGCaT" style="ellipse;whiteSpace=wrap;html=1;aspect=fixed;" vertex="1" parent="1">
          <mxGeometry x="520" y="400" width="60" height="60" as="geometry" />
        </mxCell>
        <mxCell id="PlGeKxx-NIN7YSxcfEhY-34" value="MyGrid / Taverna" style="ellipse;whiteSpace=wrap;html=1;aspect=fixed;" vertex="1" parent="1">
          <mxGeometry x="325" y="400" width="60" height="60" as="geometry" />
        </mxCell>
        <mxCell id="PlGeKxx-NIN7YSxcfEhY-35" value="EBI" style="ellipse;whiteSpace=wrap;html=1;aspect=fixed;" vertex="1" parent="1">
          <mxGeometry x="415" y="400" width="60" height="60" as="geometry" />
        </mxCell>
      </root>
    </mxGraphModel>
  </diagram>
</mxfile>
